<svg id="Capa_1" xmlns="http://www.w3.org/2000/svg" viewBox="0 0 504 501.5">
    <style>
        .st0{fill:#f0c18d}.st1{fill:none}
    </style>
    <path class="st0" d="M176.1 142.2c35.2 8.4 59.7 33.8 59.7 70.5 0 24.4-8.4 43.6-24.8 57.6s-36.6 20.9-60.7 20.9c-37.3 0-69.1-17.4-82-50.6l34.2-19.9c7.3 20.9 23 31.4 47.8 31.4 27.9 0 45.4-15.4 45.4-39.4s-17.4-39.1-45.4-39.1h-9.1l-16.1-24.1 52.7-69.4H75.6V42.4h150v34.2l-49.5 65.6z"/>
    <path class="st0" d="M340.4 134.5c23.4 0 42.9 7 59 20.9 16.1 13.6 24.1 32.8 24.1 57.2s-8.4 43.6-24.8 57.6-36.6 20.9-60.7 20.9c-38.7 0-70.5-18.5-83.1-52.3l34.5-19.9c6.6 22 22.7 33.2 48.5 33.2 27.6 0 45.4-15.4 45.4-39.4s-17.8-39.1-44.7-39.1h-71.2l9.4-131.2H413v37.7h-99.1l-4.2 54.4h30.7z"/>
    <path class="st1" d="M247.1 342.7h-16.3"/>
    <path class="st1" d="M250.1 342.7h-22"/>
    <g>
        <path class="st0" d="M182.7 355.6v102.7h-22.2V377h-34.3v38.2c0 32.7-14.8 45.6-41.1 43.1v-20.7c12.5 2.3 18.9-4.7 18.9-23.4v-58.5h78.7z"/>
        <path class="st0" d="M226 416.4c3.3 15.6 15.8 24.2 32.9 24.2 11.7 0 20.5-4.3 26.5-12.7l18.3 10.7c-10.1 15-25.1 22.4-45 22.4-16.6 0-30.2-5.1-40.5-15.2-10.3-10.3-15.4-23.2-15.4-38.8 0-15.4 5.1-28.1 15.2-38.4 10.1-10.5 23.2-15.6 39-15.6 15 0 27.3 5.3 37 15.8s14.6 23.4 14.6 38.4c0 2.3-.2 5.3-.8 9.2H226zm60.2-18.1c-3.1-16.6-14.8-25.3-29.4-25.3-16.4 0-27.9 9.7-31 25.3h60.4z"/>
        <path class="st0" d="M402.5 355.6V377H369v81.3h-22.2V377h-33.7v-21.4h89.4z"/>
    </g>
</svg>
