<svg id="Capa_1" xmlns="http://www.w3.org/2000/svg" viewBox="0 0 485.7 485.7">
    <style>
        .st0{fill:#f0c18d}
    </style>
    <path class="st0" d="M301.7 308.4h-17.5v-9.5c0-8-6.5-14.5-14.5-14.5h-17.5v-75.3l1.4-.1c56.4-4.3 98.7-53.7 94.3-110.1C343.6 42.6 294.2.2 237.8 4.6c-56.4 4.3-98.7 53.7-94.3 110.1 3.9 50.7 43.6 90.4 94.3 94.3l1.4.1v75.3h-25.5c-1.7 0-3.4.7-4.6 1.9l-68.9 68.9v-8.3c0-3.6-2.9-6.5-6.5-6.5h-17.5v-9.5c0-3.6-2.9-6.5-6.5-6.5H92.2v-19.3l1.4-.1c20.9-2.1 39.7-12.2 52.9-28.4 13.3-16.2 19.4-36.7 17.3-57.5-2.1-20.9-12.2-39.7-28.4-52.9-16.2-13.3-36.7-19.4-57.5-17.3C57 151 38.2 161.1 25 177.3 11.7 193.5 5.6 214 7.7 234.8c3.7 37 33.3 66.5 70.3 70.3l1.3.1v19.3H45.7c-1.7 0-3.4.7-4.6 1.9l-39 38.8 9.2 9.2 37-37h54.8v35h-19v-16h-13v67.8L41 454.3c-1.2 1.2-1.9 2.9-1.9 4.6v16c0 3.6 2.9 6.5 6.5 6.5h128c1.7 0 3.4-.7 4.6-1.9l30.1-30.1h93.3c12.4 0 22.5-10.1 22.5-22.5v-96c.1-12.4-10-22.5-22.4-22.5zM20.2 226.9c0-18.1 7.3-34.4 19.2-46.3s28.2-19.2 46.3-19.2c36.1 0 65.5 29.4 65.5 65.5s-29.4 65.5-65.5 65.5c-36.1-.1-65.5-29.4-65.5-65.5zm136-120c0-24.7 10-47.1 26.2-63.3s38.6-26.2 63.3-26.2c49.4 0 89.5 40.1 89.5 89.5 0 49.3-40.1 89.5-89.5 89.5-49.3-.1-89.5-40.2-89.5-89.5zm-40 246.5h11v14.8l-11 11v-25.8zm-32 32H110l-25.8 25.8v-25.8zm86.8 83H52.2v-6.8l81.5-81.5 62.8 62.8-25.5 25.5zm68.2-32h-30.8l-65.5-65.5 73.5-73.5h54.8v75h-19v-32h-13v96zm72-9.5c0 5.2-4.3 9.5-9.5 9.5h-49.5v-19h59v9.5zm0-22.5h-59v-19h59v19zm0-32h-27v-19h27v19zm0-32h-27v-19h17.5c5.2 0 9.5 4.3 9.5 9.5v9.5z"/>
    <path class="st0" d="M297.2 64.5l-78.9 78.9c-2.5 2.5-6.7 2.5-9.2 0l-30.9-30.9 9.2-9.2 26.3 26.3L288 55.3l9.2 9.2z"/>
    <path class="st0" d="M437.7 332.4h-25.5v-19.3l1.3-.1c40.2-4.1 70.6-37.7 70.7-78.1 0-43.3-35.2-78.5-78.5-78.5-10.5 0-20.7 2-30.1 5.9s-18 9.6-25.4 17c-14.8 14.8-23 34.5-23 55.5 0 40.5 30.4 74.1 70.7 78.1l1.3.1v19.3h-1.5c-8 0-14.5 6.5-14.5 14.5v9.5h-17.5c-12.4 0-22.5 10.1-22.5 22.5v102.5h13v-16h59v16h13v-109h-13v16h-19v-43H435l37 37 9.2-9.2-38.9-38.9c-1.3-1.1-2.9-1.8-4.6-1.8zm-81.5 46.5c0-5.2 4.3-9.5 9.5-9.5h17.5v19h-27v-9.5zm59 73.5h-59v-19h59v19zm0-51v19h-59v-19h59zm-75-166.5c0-18.1 7.3-34.4 19.2-46.3s28.2-19.2 46.3-19.2c36.1 0 65.5 29.4 65.5 65.5s-29.4 65.5-65.5 65.5c-36.1-.1-65.5-29.4-65.5-65.5z"/>
    <path class="st0" d="M445.2 204.5l-58.9 58.9c-2.5 2.5-6.7 2.5-9.2 0l-22.9-22.9 9.2-9.2 18.3 18.3 54.3-54.3 9.2 9.2z"/>
    <path class="st0" d="M125.2 196.5l-58.9 58.9c-2.5 2.5-6.7 2.5-9.2 0l-22.9-22.9 9.2-9.2 18.3 18.3 54.3-54.3 9.2 9.2z"/>
</svg>
