<?xml version="1.0" encoding="utf-8"?>
<!-- Generator: Adobe Illustrator 22.0.1, SVG Export Plug-In . SVG Version: 6.00 Build 0)  -->
<svg version="1.1" id="diagram" xmlns="http://www.w3.org/2000/svg" xmlns:xlink="http://www.w3.org/1999/xlink" x="0px" y="0px"
	 viewBox="0 0 2067.9 1170.6" style="enable-background:new 0 0 2067.9 1170.6;" xml:space="preserve">
<style type="text/css">
	.st0{enable-background:new    ;}
	.st1{fill:#2E62A3;}
	.st2{fill:#FFFFFF;}
	.st3{font-family:'Gilroy-Extrabold';}
	.st4{font-size:31px;}
	.st5{font-family:'Montserrat-Medium';}
	.st6{font-size:14px;}
</style>
<g class="st0">
	
		<image style="overflow:visible;opacity:0.4;" width="391" height="585" xlink:href="4C544E9E.png"  transform="matrix(1 0 0 1 127 267)">
	</image>
	<g>
		<g>
			<path class="st1" d="M448,327c2.3,0,4.7,0,7,0c0,90.7,0,181.3,0,272c-1.1,1-2.3,1.9-3.3,3C389.8,663,328.9,726,267,787.1
				c-1.3,1.3-2.6,2.5-4.6,4.3c-6-7-13.1-15.6-18.7-22.6c-32.8-41.5-52.2-88.4-57.6-141.1c-0.7-6.6-1.4-13.2-2.2-19.7
				c0-5.7,0-11.3,0-17c0.3-1.3,0.8-2.5,1-3.8c1.2-11.6,1.6-23.3,3.7-34.7c12.4-67.5,45.3-123.1,98.9-166
				c41.2-32.9,88.2-52,140.7-57.4C434.8,328.5,441.4,327.7,448,327z"/>
		</g>
	</g>
</g>
<text transform="matrix(1 0 0 1 282.2808 533.018)"><tspan x="0" y="0" class="st2 st3 st4">30 500</tspan><tspan x="13.7" y="31" class="st2 st5 st6">сажанцев</tspan></text>
</svg>
