<svg id="Capa_1" xmlns="http://www.w3.org/2000/svg" viewBox="0 0 512 512">
    <style>
        .st0{fill:#f0c18d}
    </style>
    <path class="st0" d="M259.2 215.4c-11.8 0-21.5 9.6-21.5 21.5 0 11.8 9.6 21.5 21.5 21.5 11.8 0 21.5-9.6 21.5-21.5-.1-11.9-9.7-21.5-21.5-21.5zm0 29c-4.1 0-7.5-3.3-7.5-7.5 0-4.1 3.4-7.5 7.5-7.5s7.5 3.3 7.5 7.5c-.1 4.1-3.4 7.5-7.5 7.5z"/>
    <path class="st0" d="M213.9 160.1c-12.8 0-23.3 10.4-23.3 23.3 0 12.8 10.4 23.3 23.3 23.3 12.8 0 23.3-10.5 23.3-23.3 0-12.9-10.5-23.3-23.3-23.3zm0 32.6c-5.1 0-9.3-4.2-9.3-9.3s4.2-9.3 9.3-9.3 9.3 4.2 9.3 9.3-4.2 9.3-9.3 9.3z"/>
    <path class="st0" d="M438.1 423.1H418c-3.9 0-7 3.1-7 7s3.1 7 7 7h18.1v5.4H229.6v-5.4h76.9c6.6 0 12-5.4 12-12v-56.2h28.6v56.2c0 6.6 5.4 12 12 12H383c3.9 0 7-3.1 7-7s-3.1-7-7-7h-21.8v-56.2c0-4.1-2.1-7.9-5.6-10.1l-.2-.1V242c0-3.9-3.1-7-7-7s-7 3.1-7 7v112.9h-17V108.5h17V208c0 3.9 3.1 7 7 7s7-3.1 7-7V17.8c0-4.6-1.8-9-5.1-12.3C347 2.2 342.7.4 338 .4h-10.3c-9.6 0-17.3 7.8-17.3 17.3v338.8l-.2.1c-3.5 2.2-5.6 6-5.6 10.1v56.2h-29.9l.4-6.9.4-.1c13.1-2.2 22.6-13.4 22.6-26.6v-52.1l.2-.2c3.8-3.3 6-8 6-12.9V322c0-9.4-7.6-17-17-17h-11.4v-.5c-1-14.9-13.4-26.6-28.4-26.6-1.9 0-3.9.2-5.8.6l-.4.1-.1-.4c-4.5-13.7-17.3-22.9-31.7-22.9H208.1l-.2-.2c-5.5-7.6-14.3-12.1-23.6-12.1-10.2 0-19.8 5.5-25 14.3l-.2.3-.3-.1c-1.7-.3-3.4-.4-5.1-.4-11 0-21.1 6.1-26.3 15.8l-.1.2-.2.1c-16.4 3-30.1 15.4-34.9 31.5l-.1.4H78.9c-9.4 0-17 7.6-17 17v2.1c0 5 2.2 9.8 6.1 13l.2.2v.3c-.1.4-.1.8-.1 1.3v50.4c0 13.3 9.5 24.5 22.6 26.6l.4.1v.4l5.2 81.6c.5 7.4 6.7 13.2 14.1 13.2h327.7c6.6 0 12-5.4 12-12v-64.4c0-6.4-5.4-11.8-12-11.8zM324.3 17.8c0-1.8 1.5-3.3 3.3-3.3H338c1.8 0 3.3 1.5 3.3 3.3v76.7h-17V17.8zM284 389.6c0 5-2.8 9.4-7.3 11.6l-.8.4 3.8-60.1h4.3v48.1zm-176.8-85c4.8-10.1 14.5-16.9 25.5-17.8 1.4-.1 2.7-.6 3.8-1.5 1.1-.8 1.9-2 2.3-3.3 2.1-6.4 8.1-10.7 14.8-10.7 2.3 0 4.4.5 6.5 1.4 1.9.8 4 .8 5.9 0 1.9-.9 3.2-2.5 3.8-4.5 1.8-6.5 7.8-11 14.5-11 5.8 0 11.2 3.4 13.6 8.7 1.4 2.9 4.5 4.5 7.7 3.9 1.3-.3 2.5-.4 3.8-.4 10.6 0 19.2 8.6 19.3 19.2 0 2.6 1.4 4.9 3.7 6.1s5 1.1 7.1-.3c2.3-1.5 5-2.3 7.8-2.3 7.2 0 13.3 5.4 14.3 12.5l.1.6H106.9l.3-.6zm-17.9 96.6c-4.5-2.2-7.3-6.7-7.3-11.6v-48.1h4.3l3.8 60.1-.8-.4zm11-59.8H216c3.9 0 7-3.1 7-7s-3.1-7-7-7H78.9c-1.6 0-3-1.4-3-3v-2.1c0-1.6 1.4-3 3-3h208.2c1.6 0 3 1.4 3 3v2.1c0 1.6-1.4 3-3 3H251c-3.9 0-7 3.1-7 7s3.1 7 7 7h14.7l-3.9 61.1h-31.4l-.1-.4c-1.8-7.8-8.6-13.2-16.5-13.2h-61.6c-7.9 0-14.8 5.4-16.5 13.2l-.1.4h-31.4l-3.9-61.1zM216.9 406v3.8c0 1.6-1.4 3-3 3h-61.6c-1.6 0-3-1.4-3-3V406c0-1.6 1.4-3 3-3h61.6c1.6 0 3 1.4 3 3zm-1.3 91.5H110.2l-.5-8.7h106l-.1 8.7zm3.2-70.5c-2.1 2.2-3.2 5.1-3.2 8.1v39.7H108.8l-3.7-58.2h31.6l.1.3c2.8 6 8.8 9.9 15.4 9.9h61.6c1.5 0 3-.2 4.5-.6l1.7-.5-1.2 1.3zm6.8-3.7l-1.7.3 1.3-1.2c1.8-1.6 3.2-3.5 4.1-5.6l.1-.3H261l-.4 6.5h-32.9l-2.1.3zm210.5 74.2H229.6v-41H436v41h.1z"/>
    <path class="st0" d="M220.6 291.3c-.5 1.8-1.6 3.3-3.2 4.3s-3.5 1.2-5.3.8c-1.8-.5-3.3-1.6-4.3-3.2-1.7-2.9-4.7-4.6-8-4.6s-6.3 1.7-8 4.6c-1.3 2.1-3.6 3.4-6 3.4-1.3 0-2.5-.3-3.5-1-3.3-2-4.4-6.3-2.5-9.6 4.2-7.1 11.8-11.5 20-11.5s15.9 4.4 20 11.5c1 1.6 1.3 3.5.8 5.3z"/>
    <path class="st0" d="M168.7 299.7c-1.6.9-3.5 1.2-5.3.8-1.8-.5-3.3-1.6-4.3-3.2-.9-1.5-2.4-2.3-4.1-2.3s-3.2.9-4 2.3c-1.3 2.1-3.6 3.4-6 3.4-1.2 0-2.5-.3-3.6-1-3.3-2-4.4-6.3-2.5-9.6 3.4-5.7 9.5-9.2 16.1-9.2 3.3 0 6.5.9 9.3 2.5s5.2 3.9 6.8 6.7c2 3.4.9 7.7-2.4 9.6z"/>
</svg>
