<svg id="Слой_1" xmlns="http://www.w3.org/2000/svg" viewBox="0 0 423.3 423.3">
    <style>
        .st0{fill:#f0c18d}
    </style>
    <path class="st0" d="M288.8 51.8c0 4.8-1.4 6.7-3.6 9.9-1.2 1.7-2.6 3.7-3.8 6.2-1.8 3.7-.1 8.2 3.6 10 1 .5 2.1.7 3.2.7 2.8 0 5.5-1.6 6.8-4.3.6-1.3 1.5-2.5 2.5-4 2.7-3.8 6.4-9.1 6.4-18.6s-3.7-14.7-6.4-18.6c-2.3-3.2-3.6-5.2-3.6-9.9 0-4.8 1.4-6.7 3.6-9.9.4-.5.8-1.1 1.1-1.7 2.3-3.4 1.4-8.1-2-10.4s-8.1-1.4-10.4 2c-.3.5-.7 1-1 1.4-2.7 3.8-6.4 9.1-6.4 18.6 0 9.5 3.7 14.7 6.4 18.6 2.2 3.3 3.6 5.2 3.6 10z"/>
    <path class="st0" d="M196.6 51.8c0 4.8-1.4 6.7-3.6 9.9-1.2 1.7-2.6 3.7-3.8 6.2-1.8 3.7-.1 8.2 3.6 10 1 .5 2.1.7 3.2.7 2.8 0 5.5-1.6 6.8-4.3.6-1.3 1.5-2.5 2.5-4 2.7-3.8 6.4-9.1 6.4-18.6S208 37 205.3 33.1c-2.3-3.2-3.6-5.2-3.6-9.9 0-4.8 1.4-6.7 3.6-9.9.4-.5.8-1.1 1.1-1.7 2.3-3.4 1.4-8.1-2-10.4-3.4-2.3-8.1-1.4-10.4 2-.3.5-.7 1-1 1.4-2.7 3.8-6.4 9.1-6.4 18.6 0 9.5 3.7 14.7 6.4 18.6 2.3 3.3 3.6 5.2 3.6 10z"/>
    <path class="st0" d="M104.5 51.8c0 4.8-1.4 6.7-3.6 9.9-1.2 1.7-2.6 3.7-3.8 6.2-1.8 3.7-.1 8.2 3.6 10 1 .5 2.1.7 3.2.7 2.8 0 5.5-1.6 6.8-4.3.6-1.3 1.5-2.5 2.5-4 2.7-3.8 6.4-9.1 6.4-18.6s-3.7-14.7-6.4-18.6c-2.3-3.2-3.6-5.2-3.6-9.9s1.4-6.7 3.6-9.9c.4-.5.8-1.1 1.1-1.7 2.3-3.4 1.4-8.1-2-10.4-3.4-2.3-8.1-1.4-10.4 2-.3.5-.7.9-1 1.4-2.7 3.8-6.4 9.1-6.4 18.6s3.7 14.7 6.4 18.6c2.2 3.3 3.6 5.2 3.6 10z"/>
    <path class="st0" d="M351.1 112.8c-8.4 0-15.6 5.2-18.5 12.5h-12c-4.1 0-7.5 3.4-7.5 7.5s3.4 7.5 7.5 7.5h12c3 7.3 10.2 12.5 18.5 12.5 11 0 20-9 20-20s-8.9-20-20-20zm0 25c-2.8 0-5-2.2-5-5s2.2-5 5-5 5 2.2 5 5-2.2 5-5 5z"/>
    <path class="st0" d="M346.1 384.7v-12c0-4.1-3.4-7.5-7.5-7.5s-7.5 3.4-7.5 7.5v12c-7.3 3-12.5 10.2-12.5 18.5 0 11 9 20 20 20s20-9 20-20c0-8.3-5.2-15.5-12.5-18.5zm-7.5 23.6c-2.8 0-5-2.2-5-5s2.2-5 5-5 5 2.2 5 5-2.2 5-5 5z"/>
    <path class="st0" d="M253.2 140.3h36.1c4.1 0 7.5-3.4 7.5-7.5s-3.4-7.5-7.5-7.5h-36.1c-4.1 0-7.5 3.4-7.5 7.5s3.4 7.5 7.5 7.5z"/>
    <path class="st0" d="M181.6 254.3h-36.1c-4.1 0-7.5 3.4-7.5 7.5s3.4 7.5 7.5 7.5h36.1c4.1 0 7.5-3.4 7.5-7.5s-3.3-7.5-7.5-7.5z"/>
    <path class="st0" d="M188.9 197.3c0 4.1 3.4 7.5 7.5 7.5h36.1c4.1 0 7.5-3.4 7.5-7.5s-3.4-7.5-7.5-7.5h-36.1c-4.1 0-7.5 3.3-7.5 7.5z"/>
    <path class="st0" d="M248.9 254.3h-36.1c-4.1 0-7.5 3.4-7.5 7.5s3.4 7.5 7.5 7.5h36.1c4.1 0 7.5-3.4 7.5-7.5s-3.4-7.5-7.5-7.5z"/>
    <path class="st0" d="M334.9 246.4c.8.2 1.5.4 2.3.4 3.2 0 6.1-2 7.1-5.2 1.2-3.9 1.8-7.9 1.8-12 0-10.9-4.5-21.4-12.4-28.9-3-2.8-7.8-2.7-10.6.3s-2.7 7.8.3 10.6c5 4.7 7.7 11.1 7.7 18 0 2.6-.4 5.1-1.1 7.5-1.3 3.8.9 8.1 4.9 9.3z"/>
    <path class="st0" d="M263.6 189.8c-4.1 0-7.5 3.4-7.5 7.5s3.4 7.5 7.5 7.5h36.1c4.1 0 7.5-3.4 7.5-7.5s-3.4-7.5-7.5-7.5h-36.1z"/>
    <path class="st0" d="M313.7 253.2c-2.4.7-4.8 1.1-7.3 1.1H280c-4.1 0-7.5 3.4-7.5 7.5s3.4 7.5 7.5 7.5h26.4c4 0 8-.6 11.8-1.8 4-1.2 6.2-5.4 4.9-9.4-1.2-3.9-5.4-6.1-9.4-4.9z"/>
    <path class="st0" d="M327.8 346.2c1.4 2.4 3.9 3.8 6.5 3.8 1.3 0 2.6-.3 3.7-1 3.6-2.1 4.8-6.7 2.7-10.2-7.1-12.3-20.3-19.9-34.4-19.9H304c-4.1 0-7.5 3.4-7.5 7.5s3.4 7.5 7.5 7.5h2.3c8.9-.1 17.1 4.6 21.5 12.3z"/>
    <path class="st0" d="M111.3 132.8c0 4.1 3.4 7.5 7.5 7.5h36.1c4.1 0 7.5-3.4 7.5-7.5s-3.4-7.5-7.5-7.5h-36.1c-4.2 0-7.5 3.3-7.5 7.5z"/>
    <path class="st0" d="M121.9 261.8c0-4.1-3.4-7.5-7.5-7.5H91.9c-5.7 0-11.1 1.2-16.2 3.5-3.8 1.7-5.5 6.1-3.8 9.9 1.2 2.8 4 4.4 6.8 4.4 1 0 2.1-.2 3.1-.7 3.2-1.4 6.6-2.1 10.1-2.1h22.5c4.2 0 7.5-3.4 7.5-7.5z"/>
    <path class="st0" d="M77.2 313.9c-6.4-4.7-10-12-10-19.9 0-1.5.1-3.1.4-4.6.8-4.1-1.9-8-6-8.8-4.1-.8-8 1.9-8.8 6-.5 2.4-.7 4.9-.7 7.3 0 12.5 6 24.5 16.1 31.9 1.3 1 2.9 1.5 4.5 1.5 2.3 0 4.6-1 6-3 2.5-3.2 1.8-7.9-1.5-10.4z"/>
    <path class="st0" d="M58.9 162c.8.3 1.6.4 2.4.4 3.1 0 6.1-2 7.1-5.1 3-9 10.9-15.5 20.3-16.7 4.1-.5 7-4.3 6.5-8.4-.5-4.1-4.3-7-8.4-6.5-15 2-27.8 12.5-32.6 26.9-1.3 3.8.8 8.1 4.7 9.4z"/>
    <path class="st0" d="M138.5 318.8h-36.1c-4.1 0-7.5 3.4-7.5 7.5s3.4 7.5 7.5 7.5h36.1c4.1 0 7.5-3.4 7.5-7.5s-3.3-7.5-7.5-7.5z"/>
    <path class="st0" d="M205.8 318.8h-36.1c-4.1 0-7.5 3.4-7.5 7.5s3.4 7.5 7.5 7.5h36.1c4.1 0 7.5-3.4 7.5-7.5s-3.4-7.5-7.5-7.5z"/>
    <path class="st0" d="M186 140.3h36.1c4.1 0 7.5-3.4 7.5-7.5s-3.4-7.5-7.5-7.5H186c-4.1 0-7.5 3.4-7.5 7.5s3.3 7.5 7.5 7.5z"/>
    <path class="st0" d="M121.7 197.3c0 4.1 3.4 7.5 7.5 7.5h36.1c4.1 0 7.5-3.4 7.5-7.5s-3.4-7.5-7.5-7.5h-36.1c-4.2 0-7.5 3.3-7.5 7.5z"/>
    <path class="st0" d="M98.1 189.8h-6.2c-7.9 0-15.1-3.6-19.8-9.9-2.5-3.3-7.2-4-10.5-1.5s-4 7.2-1.5 10.5c7.6 10.1 19.2 15.9 31.8 15.9h6.2c4.1 0 7.5-3.4 7.5-7.5s-3.4-7.5-7.5-7.5z"/>
    <path class="st0" d="M273 318.8h-36.1c-4.1 0-7.5 3.4-7.5 7.5s3.4 7.5 7.5 7.5H273c4.1 0 7.5-3.4 7.5-7.5s-3.4-7.5-7.5-7.5z"/>
</svg>
