<svg id="Слой_1" xmlns="http://www.w3.org/2000/svg" viewBox="0 0 300.4 180.4">
    <style>
        .st0{fill:#fff}
    </style>
    <g id="Layer_x0020_1">
        <path class="st0" d="M9.1 133.1H2.7v-4.6h18.6v4.6H15v16.1H9.1z"/>
        <path id="_x31_" class="st0" d="M41.2 144.7v4.5H24.5v-20.7h16.3v4.5H30.4v3.5h9.2v4.4h-9.2v3.8z"/>
        <path id="_x31_2" class="st0" d="M49.9 133.1h-6.3v-4.6h18.5v4.6h-6.3v16.1h-5.9z"/>
        <path id="_x31_23" class="st0" d="M85.1 128.5v20.7h-5.9v-8.1h-7.9v8.1h-5.9v-20.7h5.9v7.7h7.9v-7.7z"/>
        <path id="_x31_234" class="st0" d="M101.4 141.8v7.4h-5.8v-7.5l-7.9-13.2h6.1l5 8.2 4.9-8.2h5.7z"/>
        <path id="_x31_2345" class="st0" d="M119.2 149.6c-1.7 0-3.3-.2-4.9-.6-1.6-.4-2.9-1-3.9-1.7l1.9-4.3c.9.6 2 1.1 3.2 1.5 1.2.4 2.4.6 3.6.6 2.3 0 3.4-.6 3.4-1.7 0-.6-.3-1-1-1.3-.6-.3-1.7-.6-3.1-.9-1.6-.3-2.9-.7-3.9-1.1-1-.4-1.9-1-2.7-1.9-.8-.8-1.1-2-1.1-3.4 0-1.3.3-2.4 1-3.4s1.7-1.8 3.1-2.4c1.4-.6 3.1-.9 5.1-.9 1.4 0 2.7.2 4 .5 1.3.3 2.5.8 3.5 1.3l-1.8 4.4c-2-1.1-3.9-1.6-5.7-1.6-1.2 0-2 .2-2.5.5s-.8.8-.8 1.3c0 .6.3 1 .9 1.2.6.3 1.6.6 3.1.9 1.6.3 2.9.7 3.9 1.1 1 .4 1.9 1 2.7 1.8.8.8 1.1 2 1.1 3.4 0 1.2-.3 2.4-1 3.4s-1.7 1.8-3.1 2.4c-1.3.6-3 .9-5 .9z"/>
        <path id="_x31_23456" class="st0" d="M150.2 128.5c1.9 0 3.5.3 4.9.9s2.4 1.5 3.2 2.7c.8 1.2 1.1 2.5 1.1 4.1 0 1.6-.4 2.9-1.1 4.1-.8 1.1-1.8 2-3.2 2.7-1.4.6-3 .9-4.9.9h-3.6v5.4h-5.9v-20.7h9.5zm-.3 10.7c1.2 0 2.1-.3 2.7-.8.6-.5.9-1.3.9-2.2 0-1-.3-1.7-.9-2.3-.6-.5-1.5-.8-2.7-.8h-3.3v6.1h3.3z"/>
        <path id="_x31_234567" class="st0" d="M177.5 145.2h-8.8l-1.6 4h-6l9.2-20.7h5.8l9.2 20.7h-6.1l-1.7-4zm-1.7-4.4l-2.7-6.6-2.7 6.6h5.4z"/>
        <path id="_x31_2345678" class="st0" d="M197.1 143.7h-3.2v5.5H188v-20.7h9.5c1.9 0 3.5.3 4.9.9s2.4 1.5 3.2 2.7c.8 1.2 1.1 2.5 1.1 4.1 0 1.5-.4 2.8-1.1 3.9-.7 1.1-1.7 2-3 2.6l4.5 6.5h-6.3l-3.7-5.5zm3.7-7.6c0-1-.3-1.7-.9-2.3-.6-.5-1.5-.8-2.7-.8h-3.3v6.1h3.3c1.2 0 2.1-.3 2.7-.8.6-.5.9-1.2.9-2.2z"/>
        <path id="_x31_23456789" class="st0" d="M234 151.6c-.7.8-1.5 1.5-2.5 1.9-1 .4-2.1.7-3.3.7-1.1 0-2.2-.1-3.1-.4-.9-.3-1.9-.8-2.8-1.5-.9-.7-2-1.6-3.2-2.9-1.8-.3-3.4-.9-4.8-1.9-1.4-1-2.5-2.2-3.3-3.7s-1.2-3.1-1.2-4.9c0-2.1.5-3.9 1.5-5.5s2.4-2.9 4.1-3.9c1.7-.9 3.7-1.4 5.9-1.4s4.2.5 5.9 1.4c1.7.9 3.1 2.2 4.1 3.9 1 1.6 1.5 3.5 1.5 5.5 0 2.3-.6 4.4-1.9 6.2-1.3 1.8-3 3.1-5.1 3.8.4.4.8.7 1.2.9.4.2.8.3 1.3.3 1.2 0 2.2-.5 3.1-1.5l2.6 3zm-18.2-12.8c0 1.2.2 2.2.7 3.1.5.9 1.2 1.6 2 2.1s1.8.7 2.8.7 2-.2 2.8-.7c.8-.5 1.5-1.2 2-2.1.5-.9.7-1.9.7-3.1 0-1.2-.2-2.2-.7-3.1-.5-.9-1.2-1.6-2-2.1s-1.8-.7-2.8-.7-2 .2-2.8.7c-.8.5-1.5 1.2-2 2.1-.4.9-.7 2-.7 3.1z"/>
        <path id="_x31_2345678910" class="st0" d="M246.7 149.6c-3.1 0-5.5-.8-7.2-2.5-1.7-1.7-2.6-4.1-2.6-7.1v-11.5h5.9v11.3c0 3.3 1.3 5 3.9 5 2.6 0 3.9-1.7 3.9-5v-11.3h5.8V140c0 3.1-.9 5.5-2.6 7.1-1.7 1.7-4.1 2.5-7.1 2.5z"/>
        <path id="_x31_234567891011" class="st0" d="M278.1 144.7v4.5h-16.7v-20.7h16.3v4.5h-10.5v3.5h9.3v4.4h-9.3v3.8z"/>
        <path id="_x31_23456789101112" class="st0" d="M286.8 133.1h-6.3v-4.6H299v4.6h-6.3v16.1h-5.9z"/>
        <path class="st0" d="M108 173.1c0 .9-.3 1.6-1 2.1-.6.5-1.5.8-2.5.8-.7 0-1.4-.1-2.1-.4-.7-.2-1.4-.6-2-1l1-1.5c1.1.8 2.2 1.2 3.2 1.2.4 0 .8-.1 1.1-.3.3-.2.4-.5.4-.8 0-.5-.6-.9-1.9-1.3-.1 0-.2-.1-.2-.1-2-.5-2.9-1.4-2.9-2.7 0-.9.3-1.6 1-2.1s1.6-.8 2.6-.8c1.1 0 2.1.3 3.1 1l-.7 1.5c-.8-.5-1.6-.8-2.5-.8-.5 0-.9.1-1.2.3-.3.2-.4.4-.4.8 0 .3.2.5.5.7.2.1.5.2.9.3.4.1.7.2 1 .3l.9.3c.3.1.6.3.9.5.5.4.8 1.1.8 2z"/>
        <path id="_x31__1_" class="st0" d="M113.8 175.9h-2v-9.4h2v9.4zm-1.9-11.3c-.2-.2-.4-.5-.4-.9 0-.3.1-.6.4-.9.2-.2.5-.4.9-.4.3 0 .6.1.9.4.2.2.4.5.4.9 0 .3-.1.6-.4.9-.2.2-.5.4-.9.4-.3 0-.6-.2-.9-.4z"/>
        <path id="_x31_2_1_" class="st0" d="M120.2 170.8v5.1h-2v-9.4h2v1.7c.3-.6.8-1 1.3-1.4s1.2-.5 1.8-.5c1.1 0 1.9.3 2.6 1 .7.6 1 1.6 1 2.8v5.8h-2v-5.2c0-1.7-.7-2.6-2.2-2.6-.7 0-1.3.2-1.8.7s-.7 1.1-.7 2z"/>
        <path id="_x31_23_1_" class="st0" d="M135.4 176c-1.3 0-2.4-.4-3.4-1.3-.9-.9-1.4-2.1-1.4-3.5s.5-2.6 1.5-3.5c1-.9 2.2-1.4 3.6-1.4s2.6.5 3.6 1.5l-1.2 1.4c-.8-.7-1.6-1.1-2.5-1.1-.8 0-1.5.3-2.1.8-.6.5-.9 1.3-.9 2.1 0 .9.3 1.6.9 2.2.6.6 1.3.9 2.2.9.9 0 1.7-.4 2.5-1.2l1.2 1.3c-1.2 1.2-2.5 1.8-4 1.8z"/>
        <path id="_x31_234_1_" class="st0" d="M151.7 172h-7.4c0 .7.4 1.2.9 1.7.6.4 1.2.6 2 .6 1.2 0 2.1-.4 2.7-1.1l1.1 1.2c-1 1-2.3 1.6-4 1.6-1.3 0-2.4-.4-3.4-1.3-.9-.9-1.4-2.1-1.4-3.5 0-1.5.5-2.7 1.4-3.5.9-.9 2.1-1.3 3.3-1.3s2.4.4 3.3 1.2c.9.8 1.3 1.8 1.3 3.2l.2 1.2zm-7.3-1.5h5.4c0-.8-.2-1.4-.7-1.8-.5-.4-1.1-.6-1.8-.6s-1.4.2-2 .7-.9.9-.9 1.7z"/>
        <path id="_x31_2345_1_" class="st0" d="M159.4 163.5h4.5v12.4h-2v-10.5h-2.5z"/>
        <path id="_x31_23456_1_" class="st0" d="M171.9 174.1c1.1 0 1.9-.4 2.4-1.1.5-.7.8-1.7.8-3-.3.3-.7.6-1.3.9-.6.3-1.2.4-1.8.4-1.1 0-2-.4-2.8-1.1-.7-.7-1.1-1.7-1.1-2.9s.4-2.2 1.2-2.9c.8-.7 1.8-1.1 3.1-1.1 2 0 3.3.9 4.1 2.7.4 1 .6 2.2.6 3.4 0 1.3-.1 2.3-.4 3.2-.3.8-.6 1.5-1.1 2-.9 1-2 1.5-3.4 1.5-1.3 0-2.6-.4-3.6-1.3l1-1.5c.3.2.6.4 1.1.6.4.1.8.2 1.2.2zm.4-4.6c.7 0 1.3-.2 1.8-.6.5-.4.7-.9.7-1.5s-.2-1.2-.7-1.6c-.5-.5-1-.7-1.7-.7s-1.3.2-1.7.6c-.4.4-.7.9-.7 1.6 0 .6.2 1.2.6 1.6.4.4 1 .6 1.7.6z"/>
        <path id="_x31_234567_1_" class="st0" d="M186 165.1c-1.1 0-1.9.4-2.4 1.1-.5.7-.8 1.7-.8 3 .3-.3.7-.6 1.3-.9.6-.3 1.2-.4 1.8-.4 1.1 0 2 .4 2.8 1.1.7.7 1.1 1.7 1.1 2.9s-.4 2.2-1.2 2.9c-.8.7-1.8 1.1-3.1 1.1-2 0-3.3-.9-4.1-2.7-.4-1-.6-2.2-.6-3.4 0-1.3.1-2.3.4-3.2.3-.8.6-1.5 1.1-2 .9-1 2-1.5 3.4-1.5 1.3 0 2.6.4 3.6 1.3l-1 1.5c-.3-.2-.6-.4-1.1-.6-.5-.1-.9-.2-1.2-.2zm-.4 4.6c-.7 0-1.3.2-1.8.6-.5.4-.7.9-.7 1.5s.2 1.2.7 1.6c.5.5 1 .7 1.7.7s1.3-.2 1.7-.6c.5-.4.7-.9.7-1.6 0-.6-.2-1.2-.6-1.6-.4-.3-1-.6-1.7-.6z"/>
        <path id="_x31_2345678_1_" class="st0" d="M193.1 167.1v-3.6h8.7v1.9l-5.3 10.5h-2.3l5.1-10.5H195v1.7z"/>
        <path class="st0" d="M196.6 77.6l1.2 1.2-18-7.4-4.1-4.2-9.6-6.3-10.6-12.4 7.8.4 9.2 4.4 9.6 14.6 14.5 9.7zm53.2-2.7c-5.5-4.7-9.8-11.2-9.8-11.2l-4.7-6.4-4.8-7.6-9.9-3.2-11-16.4-6.5 9.7-7.3 2.2-13.3 19.5-13.2-24.9s-13.3-8.2-15.4-10.1c-2.2-1.9-11.5-22-11.5-22l-18 19.5 1.1 5.8-5.9 1.9-13.3 22.4s-8.2 3-9.8 4c-1.1.6-8.5 9.5-13.7 16.1l.1-.1-3.5-2.5-11.4-11-12.7 14.2-10 1.5-23.4 23.4 19.6-14 .2 5.3 9.2-5.3 1.5 7.2L62.6 82l8.2.3-2.3-6.1.4-7 11.2 8.7c-1 1.4-1.8 2.5-2.1 3.1-1.8 3.3-28.4 22.9-28.4 22.9l14-7.3 15 3.2L90 83l19.4-4.6 11.7 5L142 96.9l-16.3-20-6.4-3.5-6.7-3.9-12.4-7.3 7.7-2.8 14.3-23.2 7.4-3.9.1-2.4L140 18.3c1.3 2.3 3.1 4.5 5.1 6.6l.8 8.7-10.3 1-16.3 17.2 12.7.7 5.9 9 11 6.4 11.3 6.2 12.1 4 7.8 5.8 8.9 9-2.2-10.8 3.9 5.1 2.2 9.5 3.2 8.9-.1-7.8-.4-6.1 9-.7 22.2 18.8L203 81l-7-8.5-11.6-7.4-1.7-3.2L195.1 50c-.6 2.5-2.2 6-6.1 8.8l7.5-3.8 4.6-10.2 2.7.1 7.2-5 4.3 7.4-9.9 14 4.9-3.8 4.2-.5 12.2 3.8-1.6 11.6 2.5 8 .3-5 3.2-4.5 6.8.2 2.7 19.5 4.2-13.7 2.9 4.2.3-2.1 12.2 6.1 19.5 6c0-.1-24.4-11.6-29.9-16.2z"/>
    </g>
</svg>
