<?xml version="1.0" encoding="utf-8"?>
<!-- Generator: Adobe Illustrator 22.0.1, SVG Export Plug-In . SVG Version: 6.00 Build 0)  -->
<svg version="1.1" id="Layer_1" xmlns="http://www.w3.org/2000/svg" xmlns:xlink="http://www.w3.org/1999/xlink" x="0px" y="0px"
	 viewBox="0 0 267 438" style="enable-background:new 0 0 267 438;" xml:space="preserve">
<style type="text/css">
	.st0{fill:none;stroke:#CCCCCC;}
	.st1{fill:none;stroke:#CCCCCC;stroke-dasharray:2.9757,1.9838;}
	.st2{fill:none;stroke:#CCCCCC;stroke-dasharray:3.0268,2.0179;}
	.st3{fill:none;stroke:#CCCCCC;stroke-dasharray:3.0269,2.018;}
	.st4{display:none;enable-background:new    ;}
	.st5{display:inline;}
	.st6{fill:#2B629E;}
	.st7{fill:none;stroke:#CCCCCC;stroke-dasharray:3,2;}
</style>
<g id="Фигура_11_4_">
	<g>
		<polyline class="st0" points="259.5,252 259.5,253.5 258.5,253.5 258.5,252 		"/>
		<line class="st1" x1="258.5" y1="250" x2="258.5" y2="8"/>
		<polyline class="st0" points="258.5,7 258.5,5.5 259.5,5.5 259.5,7 		"/>
		<line class="st1" x1="259.5" y1="9" x2="259.5" y2="251"/>
	</g>
</g>
<g id="Фигура_9_копия_4_">
	<g>
		<polyline class="st0" points="257.3,255.8 258.4,254.7 259.1,255.4 258,256.5 		"/>
		<line class="st2" x1="256.6" y1="257.9" x2="83.1" y2="432.5"/>
		<polyline class="st0" points="82.4,433.2 81.3,434.3 80.6,433.6 81.7,432.5 		"/>
		<line class="st3" x1="83.1" y1="431.1" x2="256.6" y2="256.5"/>
	</g>
</g>
<g class="st4">
	
		<image style="display:inline;overflow:visible;opacity:0.4;" width="527" height="392" xlink:href="3E85C470.png"  transform="matrix(1 0 0 1 52 228)">
	</image>
	<g class="st5">
		<g>
			<path class="st6" d="M309.6,288.3c1.1,1,2.1,2.1,3.2,3.1c65.4,57.2,132.7,113.3,198.1,170.6c1.4,1.2,2.6,2.4,4.6,4.3
				c-6.5,6.5-14.6,14.2-21.1,20.3c-38.9,35.7-84.3,58.6-136.5,67.8c-6.5,1.2-13,2.4-19.5,3.6c-5.7,0.4-11.3,0.8-17,1.2
				c-1.3-0.2-2.6-0.7-3.9-0.7c-11.6-0.4-23.3,0.1-34.8-1.1c-68.3-7.4-126.1-36.1-172.8-86.5"/>
		</g>
	</g>
</g>
<circle class="st7" cx="253.1" cy="255.6" r="250.1"/>
</svg>
