<svg id="Capa_1" xmlns="http://www.w3.org/2000/svg" viewBox="0 0 512 512">
    <style>
        .st0{fill:#f0c18d;stroke:#f0c18d;stroke-miterlimit:10}
    </style>
    <path class="st0" d="M506.6 99.2l-55.1-54.7c-1.2-1.2-2.9-1.9-4.6-1.9h-41.2V20c0-3.6-2.9-6.5-6.5-6.5h-46c-3.6 0-6.5 2.9-6.5 6.5v22.6h-96.3c-3.6 0-6.5 2.9-6.5 6.5v109.5c0 3.6 2.9 6.5 6.5 6.5h84.8v40l-5.6-4.4c-8.5-6.6-18.5-10-29.2-10-7.6 0-14.8 3-20.1 8.4-5.4 5.4-8.4 12.5-8.4 20.1v43.7c0 3 .1 5.5.1 7.8v.2c.2 10.1.3 12.2-4.9 18.3l-.2.3-.3.2-30.6 23.4c-7.9 6.1-14.4 14-18.7 23l-1 2h-17.2l-.4-3.1c-.4-3.3-3.2-5.7-6.4-5.7h-37.2v-3.5c0-3.6-2.9-6.5-6.5-6.5H10c-3.6 0-6.5 2.9-6.5 6.5v146.3c0 3.6 2.9 6.5 6.5 6.5h138.7c3.6 0 6.5-2.9 6.5-6.4v-3.5h37.2c2.9 0 5.5-2 6.3-4.8l.7-2.6H214l.9 2.2c8.7 21.3 29.1 35 52.1 35h151.5c17.1-.9 30.9-14.8 31.3-31.6.3-9.2-3.4-18.1-10-24.5l-2.6-2.5 2.6-2.5.5-.5c6.1-6.2 9.5-14.3 9.5-23 0-8.8-3.7-17.4-10.1-23.5l-2.6-2.5 2.6-2.5c6.4-6.1 10.1-14.7 10.1-23.5 0-8.9-3.8-17.6-10.4-23.8l-2.7-2.5 2.7-2.6c6.3-6 9.9-14 10.2-22.5.5-17.1-12.4-31.7-29.4-33.3l-3.2-.3V165.1h85c3.6 0 6.5-2.9 6.5-6.5v-54.7c0-1.8-.7-3.5-1.9-4.7zM119.7 465.6c-12.4 0-22.5-10.1-22.5-22.5s10.1-22.5 22.5-22.5 22.5 10.1 22.5 22.5-10.1 22.5-22.5 22.5zm22.5-105.1H75.7c-3.6 0-6.5 2.9-6.5 6.5s2.9 6.5 6.5 6.5h66.5V415l-5.2-2.9c-5.3-3-11.3-4.5-17.3-4.5-19.6 0-35.5 15.9-35.5 35.5 0 6 1.6 12 4.5 17.3l2.9 5.2H16.5V332.3h125.7v28.2zm43.7 95.2h-30.7v-82.2h30.7v82.2zm0-95.2h-30.7v-18.3h30.7v18.3zm173.8-334h33v16.1h-33V26.5zM417.9 290v3.5-3.5c10.8.4 19.2 9.4 18.9 20.1-.2 5-2.3 9.7-5.7 13.1-3.4 3.4-8.1 5.6-13.3 5.9h-36.6c-3.6 0-6.5 2.9-6.5 6.5s2.9 6.5 6.5 6.5h36.4l.3.1c.3.1.6.1 1 .1 10.1.8 18 9.3 18 19.5 0 10.1-7.8 18.6-17.9 19.4h-39.4c-3.6 0-6.5 2.9-6.5 6.5s2.9 6.5 6.5 6.5h38.5c.2 0 .5.1.7.1 10.1.7 18 9.3 18 19.5 0 5.2-2 10.1-5.7 13.8-3.3 3.3-7.7 5.3-12.3 5.7l-.8.1h-37c-3.6 0-6.5 2.9-6.5 6.5s2.9 6.5 6.5 6.5h37.2l.6.1c10.4.8 18.3 9.5 18 20-.3 10.1-8.6 18.4-19 19H267c-19.7 0-36.9-13.3-41.9-32.3-.8-2.9-3.3-4.9-6.3-4.9h-20V351h21.9c2.7 0 5.2-1.7 6.1-4.3 3.4-9.3 9.3-17.4 17.1-23.4l31.4-24.2c.3-.3.7-.6 1-.9 8.8-10.2 9-15.6 8.7-27.9-.1-2.1-.1-4.6-.1-7.6V219c0-4.1 1.6-8 4.5-11 2.9-2.9 6.8-4.5 11-4.5 19 0 34.7 15.5 34.8 34.6v45.4c0 1.7.7 3.4 1.9 4.6 1.2 1.2 2.9 1.9 4.6 1.9l72.8-.1h3.4v.1zm-69.7-12.8V165.1h56v112l-56 .1zm147.3-125.1H256.9v-32h162.9c3.6 0 6.5-2.9 6.5-6.5s-2.9-6.5-6.5-6.5H256.9V55.6h187.3l51.3 50.9v45.6z"/>
    <path class="st0" d="M448.8 116.1c.1.4.4.8.6 1.1.2.4.5.7.8 1s.6.6 1 .8c.4.3.7.5 1.1.6.4.2.8.3 1.2.4.8.2 1.7.2 2.5 0 .4-.1.8-.2 1.2-.4.4-.2.8-.4 1.1-.6.4-.3.7-.5 1-.8s.6-.6.8-1c.3-.4.5-.8.6-1.2.2-.4.3-.8.4-1.2.1-.4.1-.8.1-1.3 0-.4 0-.8-.1-1.3-.1-.4-.2-.8-.4-1.2-.2-.4-.4-.8-.6-1.1-.2-.4-.5-.7-.8-1s-.6-.6-1-.8c-.4-.3-.8-.4-1.1-.6-.4-.2-.8-.3-1.2-.4-.4-.1-.8-.1-1.3-.1-.4 0-.9 0-1.3.1s-.8.2-1.2.4c-.4.2-.8.4-1.1.6-.4.2-.7.5-1 .8s-.6.6-.8 1c-.2.3-.4.7-.6 1.1s-.3.8-.4 1.2c-.1.4-.1.8-.1 1.3s0 .9.1 1.3c.2.5.4.9.5 1.3z"/>
    <path class="st0" d="M37.1 372.4c.4.3.8.4 1.1.6.4.2.8.3 1.2.4s.8.1 1.3.1c1.7 0 3.4-.7 4.6-1.9 1.2-1.2 1.9-2.9 1.9-4.6 0-.4 0-.9-.1-1.3s-.2-.8-.4-1.2c-.2-.4-.4-.8-.6-1.1-.2-.3-.5-.7-.8-1-1.2-1.2-2.9-1.9-4.6-1.9-.4 0-.8 0-1.2.1s-.8.2-1.2.4c-.4.2-.8.4-1.1.6-.4.2-.7.5-1 .8s-.6.6-.8 1c-.3.4-.5.8-.6 1.1-.2.4-.3.8-.4 1.2-.1.4-.1.8-.1 1.3 0 1.7.7 3.4 1.9 4.6.2.3.6.6.9.8z"/>
</svg>
