<svg id="Capa_1" xmlns="http://www.w3.org/2000/svg" viewBox="0 0 198 198">
    <style>
        .st0{fill:#f0c18d}
    </style>
    <path class="st0" d="M136.2 8.5v33h6.8V15.4h23.8v37.5h6.8V8.5z"/>
    <path class="st0" d="M166.8 69.1v113.5H30.6V67.7h-6.8v121.7h149.8V69.1z"/>
    <path class="st0" d="M133.3 97.6c-8.8-9-33.6-29.6-74.6-25.9-.9.1-1.8.6-2.4 1.3-.6.8-.8 1.7-.7 2.7.4 2.5 10.4 60.3 24.1 74.4 7 7.2 16.3 11.2 26.3 11.3h.4c9.8 0 19.1-3.8 26.1-10.7 15-14.5 15.2-38.3.8-53.1zm-5.3 48.1c-5.8 5.6-13.3 8.7-21.4 8.7h-.4c-8.2-.1-15.8-3.4-21.5-9.2-9.5-9.7-18.2-48.7-21.6-67 35.8-1.9 57.5 16.1 65.4 24.1 11.7 12.1 11.5 31.6-.5 43.4z"/>
    <path class="st0" d="M133 168.8c-2.7-6.7-4.7-14.5-6.6-22.1-2-7.8-4-16-6.9-22.9-9.3-22.4-38.9-38-40.2-38.7-1.7-.9-3.7-.2-4.6 1.5s-.2 3.7 1.5 4.6c.3.1 28.7 15.1 37 35.2 2.7 6.5 4.6 14 6.6 22 2 7.8 4 15.8 6.8 23 .5 1.3 1.8 2.1 3.2 2.1.4 0 .9-.1 1.3-.2 1.8-.8 2.7-2.8 1.9-4.5z"/>
    <path class="st0" d="M131.5 119.9c-1.6-1-3.7-.5-4.7 1.1l-7.7 12.7-30-3.5c-1.9-.2-3.6 1.1-3.8 3-.2 1.9 1.1 3.6 3 3.8l32.2 3.8h.4c1.2 0 2.3-.6 2.9-1.6l8.9-14.6c.9-1.7.4-3.8-1.2-4.7z"/>
    <path class="st0" d="M109 93.5c-1.8-.5-3.7.5-4.2 2.3l-2.6 8.8-17.8-.4c-1.9-.1-3.4 1.4-3.5 3.3 0 1.9 1.4 3.4 3.3 3.5l20.4.5h.1c1.5 0 2.8-1 3.3-2.4l3.3-11.3c.6-1.9-.4-3.8-2.3-4.3z"/>
    <path class="st0" d="M122.4 104.5c-1.7-.7-3.7.1-4.5 1.8l-5.2 12.5-23.5-3.7c-1.8-.3-3.6 1-3.9 2.8-.3 1.9 1 3.6 2.8 3.9l26.2 4.2h.5c1.4 0 2.6-.8 3.1-2.1l6.2-15c.8-1.7 0-3.7-1.7-4.4z"/>
    <path class="st0" d="M191.1 56.9l-89-30.7c-2.1-.7-4.5-.7-6.7 0L6.9 56.9c-2.6.9-4.7 2.7-5.8 5.2s-1.4 5.2-.5 7.8c1.4 4.1 5.3 6.9 9.6 6.9 1.1 0 2.3-.2 3.3-.6l85.2-29.6 85.7 29.6c5.3 1.8 11.1-1 13-6.4 1.8-5.2-1-11.1-6.3-12.9zm-.1 10.8c-.6 1.8-2.6 2.7-4.3 2.1l-88-30.3-87.4 30.3c-1.8.6-3.7-.4-4.3-2.1-.3-.9-.2-1.8.2-2.6s1.1-1.4 1.9-1.7l88.5-30.7c.4-.1.7-.2 1.1-.2.4 0 .7.1 1.1.2l89 30.7c1.8.5 2.8 2.5 2.2 4.3z"/>
</svg>
