<svg id="Слой_1" xmlns="http://www.w3.org/2000/svg" viewBox="0 0 325.3 192.9">
    <style>
        .st0{fill:#2f63a4}
    </style>
    <g id="Layer_x0020_1">
        <path class="st0" d="M14.8 141.1H8.2v-4.9h19.3v4.9h-6.6v16.7h-6.1z"/>
        <path id="_x31_" class="st0" d="M48.2 153.1v4.7H30.9v-21.6h16.9v4.8H36.9v3.6h9.6v4.6h-9.6v3.9z"/>
        <path id="_x31_2" class="st0" d="M57.3 141.1h-6.6v-4.9H70v4.9h-6.6v16.7h-6.1z"/>
        <path id="_x31_23" class="st0" d="M93.9 136.2v21.6h-6.1v-8.4h-8.3v8.4h-6.1v-21.6h6.1v8.1h8.3v-8.1z"/>
        <path id="_x31_234" class="st0" d="M110.9 150.1v7.7h-6.1V150l-8.2-13.8h6.4l5.2 8.6 5.1-8.6h5.9z"/>
        <path id="_x31_2345" class="st0" d="M129.4 158.3c-1.7 0-3.4-.2-5.1-.6-1.6-.4-3-1-4-1.7l2-4.5c1 .6 2.1 1.2 3.4 1.5 1.3.4 2.5.6 3.8.6 2.3 0 3.5-.6 3.5-1.8 0-.6-.3-1.1-1-1.4-.7-.3-1.7-.6-3.2-.9-1.6-.3-3-.7-4.1-1.1-1.1-.4-2-1-2.8-1.9-.8-.9-1.2-2.1-1.2-3.6 0-1.3.4-2.5 1.1-3.6.7-1.1 1.8-1.9 3.2-2.5 1.4-.6 3.2-.9 5.3-.9 1.4 0 2.8.2 4.2.5 1.4.3 2.6.8 3.6 1.4l-1.9 4.5c-2.1-1.1-4.1-1.7-6-1.7-1.2 0-2.1.2-2.7.5-.6.4-.8.8-.8 1.4 0 .6.3 1 1 1.3.7.3 1.7.6 3.2.9 1.6.3 3 .7 4.1 1.1 1.1.4 2 1 2.8 1.9.8.9 1.2 2.1 1.2 3.6 0 1.3-.4 2.5-1.1 3.5-.7 1-1.8 1.9-3.2 2.5-1.5.6-3.2 1-5.3 1z"/>
        <path id="_x31_23456" class="st0" d="M161.7 136.2c2 0 3.6.3 5.1 1 1.4.6 2.5 1.6 3.3 2.8.8 1.2 1.2 2.6 1.2 4.2s-.4 3-1.2 4.2-1.9 2.1-3.3 2.8c-1.4.6-3.1 1-5.1 1H158v5.6h-6.1v-21.6h9.8zm-.3 11.2c1.3 0 2.2-.3 2.8-.8.6-.5 1-1.3 1-2.3s-.3-1.8-1-2.3c-.6-.6-1.6-.8-2.8-.8H158v6.3h3.4z"/>
        <path id="_x31_234567" class="st0" d="M190.2 153.6H181l-1.7 4.2h-6.2l9.5-21.6h6l9.6 21.6h-6.4l-1.6-4.2zm-1.8-4.5l-2.8-6.9-2.8 6.9h5.6z"/>
        <path id="_x31_2345678" class="st0" d="M210.5 152.1h-3.3v5.7h-6.1v-21.6h9.9c2 0 3.6.3 5.1 1s2.5 1.6 3.3 2.8c.8 1.2 1.2 2.6 1.2 4.2s-.4 2.9-1.1 4.1c-.7 1.2-1.8 2.1-3.1 2.7l4.7 6.8h-6.5l-4.1-5.7zm3.9-7.9c0-1-.3-1.8-1-2.3-.6-.6-1.6-.8-2.8-.8h-3.4v6.3h3.4c1.3 0 2.2-.3 2.8-.8.6-.6 1-1.4 1-2.4z"/>
        <path id="_x31_23456789" class="st0" d="M249 160.3c-.7.9-1.6 1.6-2.6 2-1 .5-2.2.7-3.4.7-1.2 0-2.3-.2-3.2-.5-1-.3-1.9-.8-2.9-1.5s-2.1-1.7-3.3-3c-1.9-.3-3.5-1-5-2s-2.6-2.3-3.4-3.9c-.8-1.6-1.2-3.3-1.2-5.2 0-2.1.5-4.1 1.6-5.8 1-1.7 2.5-3 4.3-4s3.9-1.4 6.2-1.4c2.3 0 4.3.5 6.2 1.4 1.8 1 3.2 2.3 4.3 4 1 1.7 1.6 3.6 1.6 5.8 0 2.4-.7 4.6-2 6.4-1.3 1.9-3.1 3.2-5.4 4 .4.5.8.8 1.2 1 .4.2.8.3 1.3.3 1.2 0 2.3-.5 3.3-1.5l2.4 3.2zM230 147c0 1.2.3 2.3.8 3.2.5.9 1.2 1.7 2.1 2.2.9.5 1.9.8 3 .8s2.1-.3 3-.8c.9-.5 1.6-1.2 2.1-2.2.5-.9.8-2 .8-3.2 0-1.2-.3-2.3-.8-3.2-.5-.9-1.2-1.7-2.1-2.2-.9-.5-1.9-.8-3-.8s-2.1.3-3 .8c-.9.5-1.6 1.2-2.1 2.2-.5.9-.8 2-.8 3.2z"/>
        <path id="_x31_2345678910" class="st0" d="M262.1 158.3c-3.2 0-5.7-.9-7.5-2.6-1.8-1.7-2.7-4.2-2.7-7.4v-12h6.1V148c0 3.5 1.4 5.2 4.1 5.2 2.7 0 4.1-1.7 4.1-5.2v-11.8h6v12c0 3.2-.9 5.7-2.7 7.4-1.7 1.8-4.2 2.7-7.4 2.7z"/>
        <path id="_x31_234567891011" class="st0" d="M294.9 153.1v4.7h-17.4v-21.6h17v4.8h-10.9v3.6h9.6v4.6h-9.6v3.9z"/>
        <path id="_x31_23456789101112" class="st0" d="M303.9 141.1h-6.6v-4.9h19.4v4.9h-6.6v16.7h-6.2z"/>
        <path class="st0" d="M117.8 182.7c0 .9-.3 1.7-1 2.2-.7.6-1.5.8-2.6.8-.7 0-1.5-.1-2.2-.4-.8-.3-1.4-.6-2-1.1l1-1.6c1.1.9 2.2 1.3 3.3 1.3.5 0 .8-.1 1.1-.3.3-.2.4-.5.4-.8 0-.5-.7-.9-2-1.3-.1 0-.2-.1-.2-.1-2-.6-3.1-1.5-3.1-2.8 0-.9.4-1.6 1.1-2.2.7-.5 1.6-.8 2.8-.8 1.1 0 2.2.3 3.2 1l-.8 1.5c-.8-.5-1.7-.8-2.6-.8-.5 0-.9.1-1.2.3-.3.2-.5.4-.5.8 0 .3.2.6.5.7.2.1.5.2.9.3.4.1.8.2 1.1.3l.9.3c.3.1.6.3.9.5.6.5 1 1.2 1 2.2z"/>
        <path id="_x31__1_" class="st0" d="M123.8 185.6h-2.1v-9.8h2.1v9.8zm-1.9-11.8c-.3-.3-.4-.6-.4-.9 0-.4.1-.7.4-.9.3-.3.6-.4.9-.4.4 0 .7.1.9.4.3.3.4.6.4.9 0 .4-.1.7-.4.9-.3.3-.6.4-.9.4-.4 0-.7-.1-.9-.4z"/>
        <path id="_x31_2_1_" class="st0" d="M130.5 180.3v5.3h-2.1v-9.8h2.1v1.8c.3-.6.8-1.1 1.4-1.4s1.2-.5 1.9-.5c1.1 0 2 .3 2.7 1 .7.7 1 1.7 1 2.9v6h-2.1v-5.4c0-1.8-.7-2.7-2.2-2.7-.7 0-1.3.2-1.9.7-.6.5-.8 1.2-.8 2.1z"/>
        <path id="_x31_23_1_" class="st0" d="M146.3 185.7c-1.4 0-2.5-.5-3.5-1.4-1-.9-1.5-2.1-1.5-3.6s.5-2.7 1.5-3.7c1-.9 2.3-1.4 3.7-1.4 1.5 0 2.7.5 3.7 1.5l-1.2 1.5c-.8-.7-1.7-1.1-2.6-1.1-.9 0-1.6.3-2.2.9-.6.6-.9 1.3-.9 2.2 0 .9.3 1.7.9 2.3.6.6 1.4.9 2.3.9s1.8-.4 2.6-1.3l1.2 1.3c-1.1 1.3-2.4 1.9-4 1.9z"/>
        <path id="_x31_234_1_" class="st0" d="M163.3 181.6h-7.7c0 .7.4 1.3 1 1.7.6.4 1.3.7 2.1.7 1.2 0 2.2-.4 2.8-1.2l1.2 1.3c-1.1 1.1-2.4 1.6-4.1 1.6-1.4 0-2.5-.5-3.5-1.4-1-.9-1.4-2.1-1.4-3.7 0-1.5.5-2.8 1.5-3.7 1-.9 2.1-1.4 3.5-1.4s2.5.4 3.4 1.2c.9.8 1.4 1.9 1.4 3.3l-.2 1.6zm-7.7-1.6h5.6c0-.8-.3-1.5-.8-1.9-.5-.4-1.2-.7-1.9-.7-.8 0-1.4.2-2 .7-.6.5-.9 1.1-.9 1.9z"/>
        <path id="_x31_2345_1_" class="st0" d="M171.3 172.7h4.7v12.9h-2.1v-10.9h-2.6z"/>
        <path id="_x31_23456_1_" class="st0" d="M184.3 183.8c1.1 0 2-.4 2.5-1.2.5-.8.8-1.8.8-3.1-.3.3-.7.7-1.3 1-.6.3-1.2.5-1.9.5-1.2 0-2.1-.4-2.9-1.2-.8-.8-1.2-1.8-1.2-3.1s.4-2.3 1.3-3.1c.8-.8 1.9-1.2 3.2-1.2 2.1 0 3.5.9 4.3 2.8.4 1.1.7 2.2.7 3.6s-.1 2.4-.4 3.3c-.3.9-.7 1.6-1.2 2.1-1 1-2.1 1.5-3.5 1.5s-2.7-.4-3.8-1.3l1.1-1.6c.3.2.7.5 1.1.7.4.2.8.3 1.2.3zm.4-4.8c.7 0 1.4-.2 1.9-.6.5-.4.7-.9.7-1.6s-.2-1.2-.7-1.7c-.5-.5-1.1-.7-1.8-.7s-1.3.2-1.8.6c-.5.4-.7 1-.7 1.6 0 .7.2 1.2.6 1.7.5.5 1.1.7 1.8.7z"/>
        <path id="_x31_234567_1_" class="st0" d="M199 174.4c-1.1 0-2 .4-2.5 1.2-.5.8-.8 1.8-.8 3.1.3-.3.7-.7 1.3-1 .6-.3 1.2-.5 1.9-.5 1.2 0 2.1.4 2.9 1.2.8.8 1.2 1.8 1.2 3.1s-.4 2.3-1.3 3.1c-.8.8-1.9 1.2-3.2 1.2-2.1 0-3.5-.9-4.3-2.8-.4-1.1-.7-2.2-.7-3.6 0-1.3.1-2.4.4-3.3.3-.9.7-1.6 1.2-2.1 1-1 2.1-1.5 3.5-1.5s2.7.4 3.8 1.3l-1.1 1.6c-.3-.2-.7-.5-1.1-.7-.5-.2-.9-.3-1.2-.3zm-.4 4.8c-.7 0-1.4.2-1.9.6-.5.4-.7.9-.7 1.6s.2 1.2.7 1.7c.5.5 1.1.7 1.8.7s1.3-.2 1.8-.6c.5-.4.7-1 .7-1.6s-.2-1.2-.7-1.7c-.4-.4-1-.7-1.7-.7z"/>
        <path id="_x31_2345678_1_" class="st0" d="M206.3 176.4v-3.7h9.1v2l-5.5 10.9h-2.3l5.3-10.9h-4.6v1.7z"/>
        <path class="st0" d="M210 83.3l1.3 1.3-18.7-7.7-4.3-4.4-10-6.5-11-12.9 8.1.5 9.6 4.5 10 15.2 15 10zm55.4-2.8c-5.7-4.8-10.2-11.6-10.2-11.6l-4.9-6.6-5-7.9L235 51l-11.4-17-6.7 10-7.6 2.3-13.8 20.3-13.8-26s-13.8-8.6-16.1-10.5c-2.2-1.9-11.9-22.9-11.9-22.9L135 27.5l1.1 6-6.1 2-13.8 23.3s-8.5 3.1-10.2 4.1c-1.1.7-8.8 9.9-14.2 16.8l.1-.1-3.8-2.6-11.9-11.4-13.3 14.7-10.4 1.6-24.4 24.4 20.4-14.6.2 5.6 9.6-5.5 1.6 7.5L70.5 88l8.5.3-2.4-6.4.4-7.3 11.6 9.1c-1.1 1.4-1.9 2.6-2.2 3.2-1.9 3.4-29.6 23.8-29.6 23.8l14.6-7.6 15.6 3.3L98.9 89l20.2-4.8 12.2 5.2 21.7 14.1-16.9-20.9-6.7-3.6-7-4-13-7.5 8.1-3 14.9-24.2 7.7-4.1.1-2.5 10.7-12.1c1.3 2.4 3.2 4.7 5.3 6.8l.9 9.1-10.7 1-16.9 17.9 13.2.7 6.2 9.4 11.4 6.6 11.8 6.5 12.6 4.1 8.2 6.1 9.3 9.4-2.3-11.2 4 5.3 2.3 9.9 3.3 9.2-.1-8.2-.4-6.4 9.3-.7 23.1 19.6-24.8-30-7.2-8.8-12.1-7.7-1.8-3.3 12.9-12.4c-.7 2.7-2.3 6.3-6.3 9.1l7.8-4 4.8-10.7 2.8.2 7.5-5.2 4.5 7.7-10.3 14.5 5.1-4 4.4-.5 12.7 3.9-1.7 12.1 2.6 8.3.3-5.2 3.3-4.7 7.1.3 2.9 20.3 4.4-14.3 3 4.4.1-2 12.7 6.3 20.3 6.2c.1 0-25.3-11.9-31-16.7z"/>
    </g>
</svg>
