<svg id="Layer_1" xmlns="http://www.w3.org/2000/svg" viewBox="0 0 512 512">
    <style>
        .st0{fill:#f0c18d}
    </style>
    <path class="st0" d="M321.4 63.8C265 35.3 197.2 46.2 152.5 90.9c-51.9 51.9-57.1 134.6-12.1 192.5 1.6 2 4 3.1 6.4 3.1 1.7 0 3.5-.6 4.9-1.7 3.5-2.7 4.1-7.8 1.4-11.3-40-51.4-35.4-125 10.8-171.2 39.7-39.7 100-49.4 150.1-24.1 4 2 8.8.4 10.8-3.6 2.1-3.9.5-8.8-3.4-10.8z"/>
    <path class="st0" d="M385.8 128.2c-2-4-6.9-5.6-10.8-3.6-4 2-5.6 6.9-3.6 10.8 25.3 50.1 15.6 110.4-24.1 150.1-46.2 46.1-119.7 50.8-171.2 10.8-3.5-2.7-8.6-2.1-11.3 1.4-2.7 3.5-2.1 8.6 1.4 11.3 26.3 20.5 57.9 30.6 89.3 30.6 37.5 0 75-14.4 103.2-42.7 44.6-44.5 55.5-112.3 27.1-168.7z"/>
    <path class="st0" d="M364.9 97.5c-2-2.3-4.1-4.5-6.2-6.6-2.1-2.1-4.4-4.2-6.6-6.2-3.3-3-8.4-2.6-11.4.7s-2.6 8.4.7 11.4a156.044 156.044 0 0 1 11.5 11.5c1.6 1.8 3.8 2.7 6 2.7 1.9 0 3.8-.7 5.3-2 3.4-3.1 3.7-8.2.7-11.5z"/>
    <path class="st0" d="M446.1 208.4c5.4-8.8 5.4-19.8 0-28.6l-10.6-17.4c-1.4-2.3-1.9-5-1.5-7.7l3.2-20.1c1.6-10.2-2.6-20.4-11-26.5l-16.5-12c-2.2-1.6-3.7-3.9-4.4-6.5l-4.8-19.8c-2.4-10.1-10.2-17.8-20.2-20.2l-19.8-4.8c-2.6-.6-4.9-2.2-6.5-4.4L342 24c-6.1-8.4-16.3-12.6-26.5-11l-20.1 3.2c-2.7.4-5.4-.1-7.7-1.5L270.3 4c-8.8-5.4-19.8-5.4-28.6 0l-17.4 10.6c-2.3 1.4-5 1.9-7.7 1.5L196.5 13c-10.2-1.6-20.4 2.6-26.5 11l-12 16.5c-1.6 2.2-3.9 3.7-6.5 4.4l-19.8 4.8c-10.1 2.4-17.8 10.2-20.2 20.2l-4.8 19.8c-.6 2.6-2.2 4.9-4.4 6.5l-16.5 12c-8.4 6.1-12.6 16.3-11 26.5l3.2 20.1c.4 2.7-.1 5.4-1.5 7.7l-10.6 17.4c-5.4 8.8-5.4 19.8 0 28.6l10.6 17.4c1.4 2.3 1.9 5 1.5 7.7l-3.2 20.1c-1.6 10.2 2.6 20.4 11 26.5l16.5 12c2.2 1.6 3.7 3.9 4.4 6.5l4.8 19.8c2.4 10.1 10.2 17.8 20.2 20.2l8.3 2-56 124.7c-1.2 2.7-.9 5.7.9 8.1 1.7 2.3 4.6 3.6 7.5 3.2l45-5.4 25.9 37.2c1.5 2.2 4 3.5 6.6 3.5h.8c2.9-.3 5.4-2.1 6.6-4.7l57.1-127.5 7.2 4.4c4.4 2.7 9.4 4 14.3 4s9.9-1.3 14.3-4l7.5-4.6L335 507.2c1.2 2.7 3.7 4.5 6.6 4.7h.8c2.6 0 5.1-1.3 6.6-3.5l25.9-37.2 45 5.4c2.9.3 5.7-.9 7.5-3.2 1.7-2.3 2.1-5.4.9-8.1l-56-124.9 8-1.9c10.1-2.4 17.8-10.2 20.2-20.2l4.8-19.8c.6-2.6 2.2-4.9 4.4-6.5l16.5-12c8.4-6.1 12.6-16.3 11-26.5l-3.2-20.1c-.4-2.7.1-5.4 1.5-7.7l10.6-17.3zM168.4 487.6l-20.6-29.5c-1.7-2.4-4.6-3.8-7.6-3.4l-35.7 4.3 51-113.7c.9.7 1.8 1.5 2.5 2.5l12 16.5c1.1 1.6 2.4 3 3.8 4.2L147 428.3c-1.8 4.1 0 8.8 4.1 10.7 1.1.5 2.2.7 3.3.7 3.1 0 6-1.8 7.4-4.8l26.7-59.6c2.6.4 5.3.4 8.1-.1l20.1-3.2c1.2-.2 2.4-.2 3.6 0l-51.9 115.6zM407.7 459l-35.7-4.3c-3-.4-5.9 1-7.6 3.4l-20.6 29.5L292.1 372c1.1-.1 2.2-.1 3.3 0l20.1 3.2c2.8.4 5.6.4 8.4 0l26.8 59.7c1.3 3 4.3 4.8 7.4 4.8 1.1 0 2.2-.2 3.3-.7 4.1-1.8 5.9-6.6 4.1-10.7l-26.9-60.1c1.3-1.2 2.5-2.5 3.6-4l12-16.5c.8-1 1.7-1.9 2.7-2.6L407.7 459zm24.6-259l-10.6 17.4c-3.4 5.6-4.7 12.2-3.7 18.6l3.2 20.1c.7 4.2-1.1 8.4-4.5 10.9l-16.5 12c-5.3 3.8-9 9.4-10.5 15.8l-4.8 19.8c-1 4.2-4.2 7.4-8.4 8.4l-19.8 4.8c-6.3 1.5-11.9 5.3-15.8 10.5l-12 16.5c-2.5 3.5-6.7 5.2-10.9 4.5l-20.1-3.2c-6.4-1-13 .3-18.6 3.7l-17.4 10.6c-3.6 2.2-8.2 2.2-11.8 0l-17.4-10.6c-4.3-2.6-9.3-4-14.3-4-1.4 0-2.8.1-4.3.3l-20.1 3.2c-4.2.7-8.4-1.1-10.9-4.5l-12-16.5c-3.8-5.3-9.4-9-15.8-10.5l-19.8-4.8c-4.2-1-7.4-4.2-8.4-8.4l-4.8-19.8c-1.5-6.3-5.3-11.9-10.5-15.8l-16.4-12c-3.5-2.5-5.2-6.7-4.5-10.9L94 236c1-6.4-.3-13-3.7-18.6L79.7 200c-2.2-3.6-2.2-8.2 0-11.8l10.6-17.4c3.4-5.6 4.7-12.2 3.7-18.6l-3.2-20.1c-.7-4.2 1.1-8.4 4.5-10.9l16.5-12c5.3-3.8 9-9.4 10.5-15.8l4.8-19.8c1-4.2 4.2-7.4 8.4-8.4l19.8-4.8c6.3-1.5 11.9-5.3 15.8-10.5l12-16.5c2.5-3.5 6.7-5.2 10.9-4.5l20.1 3.2c6.4 1 13-.3 18.6-3.7l17.4-10.6c3.6-2.2 8.2-2.2 11.8 0l17.4 10.6c5.6 3.4 12.2 4.7 18.6 3.7l20.1-3.2c4.2-.7 8.4 1.1 10.9 4.5l12 16.5c3.8 5.3 9.4 9 15.8 10.5l19.8 4.8c4.2 1 7.4 4.2 8.4 8.4l4.8 19.8c1.5 6.3 5.3 11.9 10.5 15.8l16.5 12c3.5 2.5 5.2 6.7 4.5 10.9l-3.2 20.1c-1 6.4.3 13 3.7 18.6l10.6 17.4c2.2 3.6 2.2 8.2 0 11.8z"/>
    <path class="st0" d="M350.4 169c-1.8-5.5-6.4-9.3-12.1-10l-48.6-5.8-20.5-44.4c-2.4-5.2-7.5-8.5-13.2-8.5-5.8 0-10.8 3.2-13.2 8.5l-20.5 44.4-48.6 5.8c-5.7.7-10.4 4.5-12.1 10-1.8 5.5-.3 11.3 4 15.2l35.9 33.2-9.5 48c-1.1 5.6 1.1 11.3 5.7 14.6 2.6 1.9 5.6 2.8 8.6 2.8 2.4 0 4.9-.6 7.1-1.9L256 257l42.7 23.9c5 2.8 11 2.5 15.7-.9s6.9-9 5.7-14.6l-9.5-48 35.9-33.2c4.2-3.9 5.7-9.7 3.9-15.2zm-54.1 39.6c-2.1 1.9-3 4.7-2.4 7.5l9.8 49.1-43.7-24.4c-1.2-.7-2.6-1-3.9-1s-2.7.3-3.9 1l-43.7 24.4 9.8-49.1c.5-2.8-.4-5.6-2.4-7.5l-36.7-34 49.7-5.9c2.8-.3 5.2-2.1 6.4-4.6l21-45.4 21 45.4c1.2 2.5 3.6 4.3 6.4 4.6l49.7 5.9-37.1 34z"/>
</svg>
