<svg id="Capa_1" xmlns="http://www.w3.org/2000/svg" viewBox="0 0 512 512">
    <style>
        .st0{fill:#f0c18d}
    </style>
    <circle class="st0" cx="156" cy="380" r="6"/>
    <path class="st0" d="M444.5 190l61.8-61.8c1.5-1.5 2.1-3.7 1.6-5.7s-2-3.7-4-4.3L358.3 73.4l-.6-2C345.1 31.1 308.3 4 266 4c-39.4 0-74.3 23.6-89 60.1l-.7 1.8-168 52.4c-2 .6-3.5 2.3-4 4.3s.1 4.2 1.6 5.7L68.6 191l-39.8 66.3c-.9 1.6-1.1 3.4-.5 5.2.6 1.7 2 3 3.7 3.6l58 19.2V442c0 2.5 1.6 4.8 3.9 5.6l33.6 12.6c49.9 18.7 125.3 47 126.5 47.5.8.3 2.2.5 3.8 0h.1l179.9-60c2.4-.8 4.1-3.1 4.1-5.7V281.1l61.8-19.4c2-.6 3.5-2.3 4-4.3s-.1-4.2-1.6-5.7L444.5 190zM362 100c0-2.3-.1-4.8-.3-7.3l-.4-5.8 129.4 40-56.3 56.3-88.6-29.5 2.6-4.3c8.9-15 13.6-32.1 13.6-49.4zM186.5 72.7c5.8-17 16.7-31.1 30.7-41C231.1 21.7 248.1 16 266 16c38.6 0 72.2 26.1 81.5 63.6 1.7 6.6 2.5 13.5 2.5 20.4 0 19.5-6.5 37.8-18.7 52.9-16 19.8-39.8 31.1-65.3 31.1-27.5 0-53.3-13.5-69-36.1-9.8-14.1-15-30.6-15-47.9 0-9.4 1.5-18.6 4.5-27.3zM21.3 126.8l150.7-47-.9 6.3c-.7 4.7-1 9.4-1 13.9 0 15.5 3.6 30.3 10.6 43.9l2.1 4.1-105.2 35-56.3-56.2zm21.5 130.1l35.8-59.7L247 253.3 211.2 313 42.8 256.9zM250 493.3l-148-55.5V289.3l5.3 1.7c44.2 14.7 69.6 23.2 84.8 28.3 17.4 5.8 20.6 6.9 21.4 6.9h.3c2.1 0 4.1-1.1 5.1-2.9l31-51.7.1 221.7zm6-249.6L95 190l94.8-31.6 1.7 2.1C209.8 183.1 237 196 266 196c26.9 0 51.8-10.8 70.2-30.5l1.8-1.9 79 26.4-161 53.7zm174 194l-168 56V267.1l42.6 53.2c1.5 1.9 4.1 2.7 6.5 2L430 284.9v152.8zM311.4 309.6L266.1 253l168.3-56.1 56.4 56.4-179.4 56.3z"/>
    <path class="st0" d="M221.6 403.7c-1.2 3.1-4.6 4.7-7.7 3.5l-22.2-8.3c-3.1-1.2-4.7-4.6-3.5-7.7.9-2.4 3.2-3.9 5.6-3.9.7 0 1.4.1 2.1.4l22.2 8.3c3.1 1.1 4.7 4.6 3.5 7.7z"/>
    <path class="st0" d="M221.6 446.4c-.9 2.3-3.1 3.9-5.6 3.9-.7 0-1.4-.1-2.1-.4l-60-22.5c-1.5-.6-2.7-1.7-3.4-3.1-.7-1.5-.7-3.1-.2-4.6.9-2.4 3.2-3.9 5.6-3.9.7 0 1.4.1 2.1.4l60 22.5c1.5.6 2.7 1.7 3.4 3.1.7 1.5.8 3.1.2 4.6z"/>
    <path class="st0" d="M320.2 74.2l-60 60c-2.3 2.3-6.1 2.3-8.5 0l-20-20c-1.1-1.1-1.8-2.6-1.8-4.2s.6-3.1 1.8-4.3c1.2-1.2 2.7-1.8 4.3-1.8s3.1.6 4.2 1.8l15.8 15.8 55.8-55.8c1.1-1.1 2.6-1.8 4.2-1.8s3.1.6 4.2 1.8c2.4 2.4 2.4 6.2 0 8.5z"/>
</svg>
