<svg id="Capa_1" xmlns="http://www.w3.org/2000/svg" viewBox="0 0 578.1 578.1">
    <style>
        .st0{fill:#2e62a3}
    </style>
    <path class="st0" d="M577.8 456.1c1.2 9.4-1.6 17.5-8.6 24.5l-81.4 80.8c-3.7 4.1-8.5 7.6-14.4 10.4-5.9 2.9-11.7 4.7-17.4 5.5-.4 0-1.6.1-3.7.3-2 .2-4.7.3-8 .3-7.8 0-20.3-1.3-37.6-4s-38.6-9.2-63.6-19.6c-25.1-10.4-53.6-26-85.4-46.8-31.8-20.8-65.7-49.4-101.6-85.7-28.6-28.2-52.2-55.1-71-80.8-18.8-25.7-33.9-49.5-45.3-71.3-11.4-21.8-20-41.6-25.7-59.4s-9.6-33-11.6-45.9-2.9-22.9-2.4-30.3c.4-7.3.6-11.4.6-12.2.8-5.7 2.7-11.5 5.5-17.4s6.3-10.7 10.4-14.4L98 8.8c5.7-5.7 12.2-8.6 19.6-8.6 5.3 0 10 1.5 14.1 4.6s7.5 6.8 10.4 11.3l65.5 124.2c3.7 6.5 4.7 13.7 3.1 21.4s-5.1 14.3-10.4 19.6l-30 30c-.8.8-1.5 2.1-2.1 4s-.9 3.4-.9 4.6c1.6 8.6 5.3 18.4 11 29.4 4.9 9.8 12.4 21.7 22.6 35.8s24.7 30.3 43.5 48.7c18.4 18.8 34.7 33.4 49 43.8 14.3 10.4 26.2 18.1 35.8 22.9s16.9 7.9 22 8.9l7.6 1.5c.8 0 2.1-.3 4-.9 1.8-.6 3.2-1.3 4-2.1l34.9-35.5c7.3-6.5 15.9-9.8 25.7-9.8 6.9 0 12.4 1.2 16.5 3.7h.6l118.1 69.8c8.5 5.1 13.6 11.9 15.2 20z"/>
</svg>
