<svg id="Layer_1" xmlns="http://www.w3.org/2000/svg" viewBox="0 0 512 512">
    <style>
        .st0{fill:#f0c18d}
    </style>
    <path class="st0" d="M453.7 246.6c-1 2-3.1 3.3-5.4 3.3-.9 0-1.8-.2-2.7-.6-12.1-6.1-36.9-7.4-45.4-7.4-3.3 0-6-2.7-6-6s2.7-6 6-6c.7 0 9.1 0 19.5 1.1s22.8 3.3 31.3 7.5c3 1.6 4.2 5.2 2.7 8.1z"/>
    <path class="st0" d="M488.7 345.5l-31-8.9c-2-.6-3.3-2.4-3.3-4.5V321l.6-.5c2.5-1.7 4.9-3.7 7-5.7 10.6-10.3 16.4-24.1 16.4-38.8v-14.6l3.2-6.3c3.2-6.4 4.9-13.5 4.9-20.6v-38.7c0-3.3-2.7-6-6-6h-72.2c-25.4 0-46.1 20.7-46.1 46.1v.5c0 5.9 1.4 11.8 4 17l4 8V274c0 18.3 8.8 35.5 23.4 46.1l.6.4v11.6c0 2.9-1.2 3.8-7.3 5.6l-15.6 4.4-45.3-16.5.1-1.1c.1-1.7-.5-3.4-1.6-4.6l-14.4-15.1V279l.5-.5c1.7-1.4 3-2.6 4.3-3.7 17.3-16.2 27.3-39.2 27.3-62.9v-20l.1-.3c5.2-11.4 7.9-23.4 7.9-35.8V75.6c0-3.3-2.7-6-6-6H232c-38.7 0-70.2 31.5-70.2 70.1v16c0 12.4 2.7 24.4 7.9 35.8l.1.3v17.3c0 26.7 11.5 51.8 31.5 68.8l.5.5v26.5L187.6 320c-1.2 1.2-1.8 2.9-1.6 4.6l.1 1.1-47.2 17.2c-3.2 1.2-6.2 2.7-8.9 4.7l-.7.5-10.9-5.5 2.9-1.3c21.1-9.2 27.7-22 28-22.5.8-1.7.8-3.7 0-5.4-5.5-11.1-6.2-31.1-6.7-47.2-.2-5.3-.3-10.3-.7-14.7-2.5-35.2-29.2-61.7-62.1-61.7s-59.6 26.5-62.1 61.7c-.3 4.4-.5 9.4-.6 14.7-.5 16.1-1.2 36.1-6.8 47.2-.8 1.7-.8 3.7 0 5.4.3.5 6.9 13.3 28 22.5l2.9 1.3-23 11.5C7.9 359.3 1.5 369.6 1.5 381v55.4c0 3.3 2.7 6 6 6s6-2.7 6-6V381c0-6.9 3.8-13.1 10-16.1l26-13 9.5 9c5.6 5.3 13 8.3 20.7 8.3s15.1-2.9 20.7-8.3l9.5-9 10.6 5.3-.9 1.4c-3.8 6.1-5.8 13-5.8 20.1v57.7c0 3.3 2.7 6 6 6s6-2.7 6-6v-57.7c0-10.9 6.9-20.8 17.2-24.5l49.8-18.1 20.9 31.4c2.3 3.5 6.1 5.8 10.3 6.2.5.1.9.1 1.4.1 3.7 0 7.3-1.5 9.9-4.1l14.9-14.9v81.8c0 3.3 2.7 6 6 6s6-2.7 6-6v-81.8l14.9 14.9c3 3 7.1 4.5 11.3 4 4.2-.4 7.9-2.7 10.3-6.2l20.9-31.4 49.8 18.1c10.3 3.7 17.2 13.6 17.2 24.5v57.7c0 3.3 2.7 6 6 6s6-2.7 6-6v-57.7c0-9.9-3.8-19.2-10.7-26.4l-1.7-1.8 4.3-1.2c1.8-.5 4.3-1.2 6.7-2.4l1-.5 20.3 20.4v69.7c0 3.3 2.7 6 6 6s6-2.7 6-6v-69.7l20.2-20.2 1 .5c1 .5 2 .9 2.9 1.2l31 8.8c7.7 2.2 13.1 9.3 13.1 17.4v62.1c0 3.3 2.7 6 6 6s6-2.7 6-6v-62.1c-.2-13.5-9.2-25.4-22-29zM49.6 332.9l-2-.7C33.2 327 25.9 320 22.9 316.3l-.5-.7.3-.8c1.8-4.8 3.2-10.6 4.2-17.6l.8-5.4 2.1 5.1c4 9.6 10.7 17.8 19.3 23.8l.7.4v11.8h-.2zm42.5 19.3c-3.5 3.3-8 5-12.4 5-4.5 0-9-1.6-12.4-5l-7.8-7.4.5-1c1.1-2 1.7-4.3 1.7-6.6v-10l1.9.6c10.4 3.2 21.7 3.3 32.2 0l1.9-.6v10c0 2.3.6 4.6 1.7 6.6l.5 1-7.8 7.4zm-12.4-34c-23.2 0-42.1-18.9-42.1-42.1 0-3.3-2.7-6-6-6-.3 0-.6 0-1 .1l-1.8.3.1-3.8c.1-4.9.3-10 .6-14.3 1-13.8 6.5-26.6 15.6-35.9 9.2-9.5 21.5-14.7 34.6-14.7s25.4 5.2 34.6 14.7c9.1 9.3 14.6 22.1 15.6 35.9.3 4.3.5 9.3.6 14.3l.2 6.7-2.9-4.5c-8.1-12.4-20.3-21.3-36.2-26.5-14.7-4.7-27.5-4.5-28-4.4-1.6 0-3.1.7-4.1 1.8l-13.5 14c-2.3 2.4-2.2 6.2.2 8.5s6.2 2.2 8.5-.2L66.2 250h.7c9.6.5 41.8 4.1 54.3 31.7l.2.4-.1.4c-3.2 20.7-20.7 35.7-41.6 35.7zm30 14.8v-11.9l.7-.5c8.6-5.9 15.3-14.1 19.3-23.8l2.1-5.1.8 5.5c1 7 2.3 12.8 4.2 17.6l.3.8-.5.7c-3.1 3.7-10.3 10.8-24.7 15.9l-2.2.8zm72.2-123.9v-18.6c0-.9-.2-1.8-.6-2.6-4.9-10.2-7.4-21-7.4-32.2v-16c0-32.1 26.1-58.1 58.2-58.1h106.3v74.2c0 11.1-2.5 22-7.4 32.2-.4.8-.6 1.7-.6 2.6V212c0 20.7-8.3 40-23.5 54.1-1.9 1.8-3.9 3.4-5.9 5l-.1.1c-13 9.9-28.3 15-44.6 15-1.7 0-3.4 0-5.1-.2-38.9-2.6-69.3-36.3-69.3-76.9zm44.8 152c-.5.5-1 .6-1.4.6h-.2c-.3 0-1-.2-1.5-.9l-24-36 9.2-9.7 37.9 25.9-20 20.1zm29.4-28.2L214 304.1v-17.3l2.2 1.2c10.7 5.8 22.2 9.1 34.2 9.9 1.9.1 3.9.2 5.8.2 14.1 0 27.5-3.3 39.8-9.8l2.2-1.2v17l-42.1 28.8zm32.5 27.9c-.5.7-1.1.9-1.5.9h-.2c-.4 0-.9-.1-1.4-.6L265.4 341l37.9-25.9 9.2 9.7-23.9 36zm135.7-5l-18.7-18.7.2-.8c.3-1.3.4-2.7.4-4.1V327l2 .6c4.7 1.5 9.6 2.4 14.4 2.5 6.1.2 12-.6 17.8-2.4l2-.6v5c0 1.3.2 2.7.5 4l.2.8-18.8 18.9zm0-37.6H423c-22.5-.7-40.8-20.5-40.8-44.1v-14c0-.9-.2-1.9-.6-2.7l-4.6-9.3c-1.8-3.6-2.8-7.6-2.8-11.7v-.5c0-18.8 15.3-34.1 34.1-34.1h66.2v32.7c0 5.3-1.2 10.5-3.6 15.3l-3.8 7.6c-.4.8-.6 1.8-.6 2.7v16c0 11.5-4.5 22.2-12.8 30.2-8 7.7-18.4 11.9-29.4 11.9z"/>
    <path class="st0" d="M478.4 388.3v48.1c0 3.3-2.7 6-6 6s-6-2.7-6-6v-48.1c0-3.3 2.7-6 6-6s6 2.7 6 6z"/>
    <path class="st0" d="M45.6 398.2v38.2c0 3.3-2.7 6-6 6s-6-2.7-6-6v-38.2c0-3.3 2.7-6 6-6s6 2.7 6 6z"/>
    <path class="st0" d="M318.2 163.8c0 1.6-.6 3.1-1.8 4.2-1.1 1.1-2.6 1.8-4.2 1.8s-3.1-.6-4.2-1.8c-10.3-10.3-27.5-16.3-51.3-17.9-20-1.3-39.3.9-49 2.4-1 .2-1.7 1-1.7 2v17.3c0 3.3-2.7 6-6 6s-6-2.7-6-6v-17.3c0-7 5-12.8 11.9-13.8 9-1.4 22.9-3 38.3-3 12.7 0 26.5 1.1 39.2 4.4 12.7 3.3 24.4 8.8 33.1 17.5 1.1 1.1 1.7 2.6 1.7 4.2z"/>
    <path class="st0" d="M173.9 404.4v32.1c0 3.3-2.7 6-6 6s-6-2.7-6-6v-32.1c0-3.3 2.7-6 6-6s6 2.6 6 6z"/>
    <path class="st0" d="M350.3 404.4v32.1c0 3.3-2.7 6-6 6s-6-2.7-6-6v-32.1c0-3.3 2.7-6 6-6s6 2.6 6 6z"/>
</svg>
