<svg id="Layer_1" xmlns="http://www.w3.org/2000/svg" viewBox="0 0 200.8 200.8">
    <style>
        .st0{fill:#f0c18d}
    </style>
    <path class="st0" d="M92.1 90.1c-.2-.7-.6-1.3-1.3-1.6L46 62.6c-.6-.4-1.4-.5-2.1-.3-.7.2-1.3.6-1.6 1.3L24.8 94c-7.1 12.2-4 28 7.1 36.7l.7.5-15.8 27.5-12.7-7.3-2.7 4.6 30.3 17.5 2.7-4.7-12.9-7.5L37.2 134l.8.4c6 2.7 12.6 3.1 18.9 1.5 7.4-2 13.5-6.7 17.3-13.3l17.6-30.4c.4-.7.5-1.4.3-2.1zm-22.5 29.8c-3.1 5.3-8.1 9.2-14.1 10.8-2 .5-4 .8-6 .8-4 0-8-1-11.5-3.1-11.1-6.4-14.9-20.6-8.5-31.6l16.2-28.1 40.1 23.2-16.2 28z"/>
    <path class="st0" d="M196.5 148.8l-13.1 8.4-16-27.7.6-.5c9.6-9.1 11.7-23.5 5.1-35l-17.6-30.4c-.4-.6-.9-1.1-1.6-1.3-.7-.2-1.4-.1-2 .3l-44.8 25.9c-.6.4-1.1.9-1.3 1.6-.2.7-.1 1.4.3 2l17.6 30.4c3.8 6.6 10 11.3 17.3 13.3 7.1 1.9 14.7 1 21.2-2.6l.8-.5 15.8 27.3-14.5 9.2 2.9 4.5 32.1-20.5-2.8-4.4zm-36.6-20.5c-3.6 2.1-7.5 3.1-11.5 3.1-2 0-4-.3-6-.8-6-1.6-11-5.4-14.1-10.8l-16.2-28.1 40.1-23.2 16.2 28.1c6.4 11.1 2.6 25.3-8.5 31.7z"/>
    <path transform="rotate(-53.159 77.74 140.545)" class="st0" d="M65.8 137.8h23.9v5.4H65.8z"/>
    <path class="st0" d="M95.3 137.9h5.4v23.9h-5.4z"/>
    <path transform="rotate(-36.851 118.339 140.66)" class="st0" d="M115.6 128.7h5.4v23.9h-5.4z"/>
    <path class="st0" d="M127.9 39.8l-14.3 19.1-4.4-3.2 14.4-19.1z"/>
    <path class="st0" d="M95.5 26.6h5.4v23.9h-5.4z"/>
    <path class="st0" d="M87.2 55.7l-4.3 3.2-14.3-19.1 4.3-3.2z"/>
</svg>
